<?xml version="1.0" encoding="UTF-8"?>
<svg xmlns="http://www.w3.org/2000/svg" height="343" width="343" class="pyqrcode"><path transform="scale(7)" stroke="#000" class="pyqrline" d="M4 4.5h7m3 0h1m2 0h1m1 0h1m1 0h1m2 0h1m4 0h1m1 0h1m2 0h1m3 0h7m-41 1h1m5 0h1m1 0h1m1 0h3m1 0h11m3 0h1m5 0h1m5 0h1m-41 1h1m1 0h3m1 0h1m1 0h2m1 0h2m1 0h4m3 0h1m1 0h3m1 0h1m1 0h3m2 0h1m1 0h3m1 0h1m-41 1h1m1 0h3m1 0h1m1 0h3m3 0h1m1 0h2m3 0h1m8 0h1m3 0h1m1 0h3m1 0h1m-41 1h1m1 0h3m1 0h1m1 0h1m2 0h3m1 0h4m3 0h1m1 0h2m3 0h2m1 0h1m1 0h1m1 0h3m1 0h1m-41 1h1m5 0h1m1 0h2m3 0h3m1 0h4m1 0h1m1 0h1m1 0h1m2 0h2m1 0h1m1 0h1m5 0h1m-41 1h7m1 0h1m1 0h1m1 0h1m1 0h1m1 0h1m1 0h1m1 0h1m1 0h1m1 0h1m1 0h1m1 0h1m1 0h1m1 0h1m1 0h7m-32 1h1m1 0h1m1 0h2m5 0h3m2 0h4m1 0h1m1 0h1m-31 1h1m2 0h5m1 0h2m1 0h3m3 0h3m2 0h1m2 0h1m4 0h1m1 0h5m-38 1h2m4 0h2m1 0h2m3 0h1m1 0h6m1 0h10m3 0h1m-39 1h11m1 0h2m2 0h1m1 0h2m1 0h1m3 0h3m3 0h1m1 0h1m3 0h2m1 0h1m-33 1h2m1 0h2m1 0h2m1 0h1m2 0h4m2 0h1m3 0h3m4 0h1m-37 1h1m1 0h1m2 0h1m3 0h1m1 0h1m3 0h2m6 0h2m2 0h1m5 0h2m4 0h1m-41 1h1m1 0h1m2 0h1m2 0h1m5 0h2m5 0h3m4 0h2m1 0h1m1 0h1m3 0h1m2 0h1m-41 1h3m3 0h2m1 0h2m3 0h1m3 0h2m2 0h1m3 0h1m1 0h2m1 0h1m1 0h2m1 0h3m1 0h1m-41 1h4m3 0h2m1 0h5m1 0h3m1 0h1m2 0h3m1 0h2m4 0h3m1 0h1m1 0h1m-40 1h1m3 0h3m1 0h3m5 0h1m2 0h1m5 0h1m5 0h1m1 0h2m5 0h1m-40 1h2m2 0h1m2 0h3m2 0h1m2 0h1m1 0h3m1 0h1m2 0h2m1 0h1m2 0h1m1 0h3m1 0h4m-38 1h1m2 0h2m2 0h1m1 0h1m1 0h1m2 0h4m1 0h1m1 0h2m1 0h1m2 0h2m3 0h4m1 0h1m-39 1h4m1 0h1m1 0h1m2 0h1m1 0h1m1 0h2m2 0h2m3 0h1m1 0h2m1 0h3m1 0h1m4 0h1m-39 1h1m1 0h2m1 0h1m2 0h1m4 0h1m3 0h1m2 0h3m2 0h3m1 0h3m1 0h1m2 0h1m2 0h1m-41 1h3m2 0h1m1 0h2m1 0h2m2 0h8m1 0h2m1 0h3m1 0h3m1 0h2m1 0h2m1 0h1m-40 1h1m1 0h4m2 0h1m1 0h1m1 0h1m1 0h2m1 0h3m4 0h3m3 0h1m1 0h3m1 0h1m2 0h1m-40 1h1m3 0h1m2 0h2m1 0h2m1 0h1m3 0h1m3 0h1m1 0h3m3 0h3m1 0h1m1 0h2m-37 1h1m4 0h4m1 0h1m3 0h1m2 0h2m2 0h2m2 0h2m4 0h1m1 0h4m1 0h1m-36 1h2m1 0h1m1 0h2m1 0h1m2 0h4m2 0h1m4 0h3m1 0h2m2 0h2m1 0h1m-38 1h1m1 0h1m1 0h1m1 0h3m1 0h1m3 0h1m9 0h2m1 0h2m1 0h2m4 0h3m1 0h1m-41 1h2m2 0h2m3 0h3m4 0h2m1 0h1m1 0h4m2 0h2m1 0h6m1 0h1m2 0h1m-41 1h4m2 0h1m4 0h3m3 0h1m2 0h5m1 0h1m1 0h1m5 0h2m3 0h2m-40 1h3m1 0h1m2 0h2m2 0h7m2 0h2m2 0h1m3 0h1m1 0h2m1 0h2m1 0h1m2 0h1m-41 1h2m1 0h5m1 0h9m2 0h1m2 0h1m1 0h3m1 0h1m1 0h1m1 0h1m1 0h1m2 0h1m1 0h1m-37 1h1m2 0h1m1 0h1m2 0h1m4 0h1m1 0h1m3 0h1m1 0h1m5 0h1m2 0h1m2 0h1m2 0h1m-41 1h3m1 0h3m1 0h1m2 0h1m6 0h1m1 0h4m2 0h4m1 0h7m-30 1h2m1 0h1m1 0h3m1 0h1m2 0h2m1 0h3m2 0h1m2 0h2m3 0h5m-41 1h7m1 0h3m1 0h2m1 0h4m3 0h1m1 0h1m1 0h2m3 0h2m1 0h1m1 0h1m3 0h1m-41 1h1m5 0h1m1 0h1m1 0h3m1 0h1m2 0h2m1 0h2m4 0h1m4 0h2m3 0h2m1 0h2m-41 1h1m1 0h3m1 0h1m6 0h1m2 0h1m1 0h1m1 0h5m2 0h3m1 0h6m1 0h1m-39 1h1m1 0h3m1 0h1m3 0h2m1 0h3m4 0h5m1 0h3m6 0h6m-41 1h1m1 0h3m1 0h1m1 0h5m1 0h1m1 0h4m2 0h7m2 0h1m1 0h1m2 0h2m1 0h2m-41 1h1m5 0h1m2 0h11m2 0h2m1 0h2m3 0h1m1 0h1m4 0h1m-38 1h7m3 0h1m1 0h1m2 0h2m2 0h3m6 0h1m1 0h1m1 0h1m3 0h2m2 0h1"/></svg>
